<svg width="1200" height="800" viewBox="0 0 1200 800" fill="none" xmlns="http://www.w3.org/2000/svg">
  <rect width="1200" height="800" fill="#020617"/>
  <path d="M0 0H1200V800H0V0Z" fill="url(#paint0_radial)"/>
  <path d="M0 0H1200V800H0V0Z" fill="url(#paint1_linear)"/>
  <g opacity="0.36">
    <path d="M90 150H1110" stroke="#22D3EE" stroke-opacity="0.2"/>
    <path d="M90 250H1110" stroke="#22D3EE" stroke-opacity="0.14"/>
    <path d="M90 350H1110" stroke="#22D3EE" stroke-opacity="0.14"/>
    <path d="M90 450H1110" stroke="#22D3EE" stroke-opacity="0.14"/>
    <path d="M90 550H1110" stroke="#22D3EE" stroke-opacity="0.14"/>
    <path d="M90 650H1110" stroke="#22D3EE" stroke-opacity="0.2"/>
    <path d="M200 90V710" stroke="#22D3EE" stroke-opacity="0.14"/>
    <path d="M400 90V710" stroke="#22D3EE" stroke-opacity="0.14"/>
    <path d="M600 90V710" stroke="#22D3EE" stroke-opacity="0.2"/>
    <path d="M800 90V710" stroke="#22D3EE" stroke-opacity="0.14"/>
    <path d="M1000 90V710" stroke="#22D3EE" stroke-opacity="0.14"/>
  </g>
  <rect x="350" y="238" width="500" height="324" rx="28" fill="#0F172A" fill-opacity="0.72" stroke="#67E8F9" stroke-opacity="0.28"/>
  <path d="M445 467L529 376L594 442L640 396L755 520H445V467Z" fill="#22D3EE" fill-opacity="0.18" stroke="#67E8F9" stroke-opacity="0.55" stroke-width="4"/>
  <circle cx="723" cy="338" r="38" fill="#F472B6" fill-opacity="0.22" stroke="#FDA4AF" stroke-opacity="0.52" stroke-width="4"/>
  <text x="600" y="620" text-anchor="middle" fill="#E2E8F0" font-family="Inter, Arial, sans-serif" font-size="48" font-weight="700">Image Coming Soon</text>
  <text x="600" y="668" text-anchor="middle" fill="#94A3B8" font-family="Inter, Arial, sans-serif" font-size="24">Project visual will be added later</text>
  <defs>
    <radialGradient id="paint0_radial" cx="0" cy="0" r="1" gradientUnits="userSpaceOnUse" gradientTransform="translate(290 170) rotate(42) scale(871 721)">
      <stop stop-color="#22D3EE" stop-opacity="0.22"/>
      <stop offset="0.48" stop-color="#0F172A" stop-opacity="0.2"/>
      <stop offset="1" stop-color="#020617" stop-opacity="0"/>
    </radialGradient>
    <linearGradient id="paint1_linear" x1="1200" y1="0" x2="0" y2="800" gradientUnits="userSpaceOnUse">
      <stop stop-color="#F472B6" stop-opacity="0.16"/>
      <stop offset="0.48" stop-color="#020617" stop-opacity="0"/>
      <stop offset="1" stop-color="#34D399" stop-opacity="0.13"/>
    </linearGradient>
  </defs>
</svg>
